<svg xmlns="http://www.w3.org/2000/svg" width="40" height="40" class="uil-default" preserveAspectRatio="xMidYMid" viewBox="0 0 100 100"><rect width="100" height="100" x="0" y="0" fill="none" class="bk"/><rect width="8" height="20" x="46" y="40" rx="5" ry="5" transform="rotate(0 50 50) translate(0 -30)"><animate attributeName="opacity" begin="0s" dur="1s" from="1" repeatCount="indefinite" to="0"/></rect><rect width="8" height="20" x="46" y="40" rx="5" ry="5" transform="rotate(30 50 50) translate(0 -30)"><animate attributeName="opacity" begin="0.08333333333333333s" dur="1s" from="1" repeatCount="indefinite" to="0"/></rect><rect width="8" height="20" x="46" y="40" rx="5" ry="5" transform="rotate(60 50 50) translate(0 -30)"><animate attributeName="opacity" begin="0.16666666666666666s" dur="1s" from="1" repeatCount="indefinite" to="0"/></rect><rect width="8" height="20" x="46" y="40" rx="5" ry="5" transform="rotate(90 50 50) translate(0 -30)"><animate attributeName="opacity" begin="0.25s" dur="1s" from="1" repeatCount="indefinite" to="0"/></rect><rect width="8" height="20" x="46" y="40" rx="5" ry="5" transform="rotate(120 50 50) translate(0 -30)"><animate attributeName="opacity" begin="0.3333333333333333s" dur="1s" from="1" repeatCount="indefinite" to="0"/></rect><rect width="8" height="20" x="46" y="40" rx="5" ry="5" transform="rotate(150 50 50) translate(0 -30)"><animate attributeName="opacity" begin="0.4166666666666667s" dur="1s" from="1" repeatCount="indefinite" to="0"/></rect><rect width="8" height="20" x="46" y="40" rx="5" ry="5" transform="rotate(180 50 50) translate(0 -30)"><animate attributeName="opacity" begin="0.5s" dur="1s" from="1" repeatCount="indefinite" to="0"/></rect><rect width="8" height="20" x="46" y="40" rx="5" ry="5" transform="rotate(210 50 50) translate(0 -30)"><animate attributeName="opacity" begin="0.5833333333333334s" dur="1s" from="1" repeatCount="indefinite" to="0"/></rect><rect width="8" height="20" x="46" y="40" rx="5" ry="5" transform="rotate(240 50 50) translate(0 -30)"><animate attributeName="opacity" begin="0.6666666666666666s" dur="1s" from="1" repeatCount="indefinite" to="0"/></rect><rect width="8" height="20" x="46" y="40" rx="5" ry="5" transform="rotate(270 50 50) translate(0 -30)"><animate attributeName="opacity" begin="0.75s" dur="1s" from="1" repeatCount="indefinite" to="0"/></rect><rect width="8" height="20" x="46" y="40" rx="5" ry="5" transform="rotate(300 50 50) translate(0 -30)"><animate attributeName="opacity" begin="0.8333333333333334s" dur="1s" from="1" repeatCount="indefinite" to="0"/></rect><rect width="8" height="20" x="46" y="40" rx="5" ry="5" transform="rotate(330 50 50) translate(0 -30)"><animate attributeName="opacity" begin="0.9166666666666666s" dur="1s" from="1" repeatCount="indefinite" to="0"/></rect></svg>