<?xml version="1.0" encoding="UTF-8" standalone="no"?>
<svg xmlns="http://www.w3.org/2000/svg" viewBox="0 0 100 100" width="40px" preserveAspectRatio="xMidYMid" height="40px" class="uil-default">
 <rect height="100" width="100" y="0" x="0" class="bk" fill="none"/>
 <rect transform="rotate(0 50 50) translate(0 -30)" rx="5" ry="5" height="20" width="8" y="40" x="46">
  <animate begin="0s" from="1" repeatCount="indefinite" attributeName="opacity" to="0" dur="1s"/>
 </rect>
 <rect transform="rotate(30 50 50) translate(0 -30)" rx="5" ry="5" height="20" width="8" y="40" x="46">
  <animate begin="0.08333333333333333s" from="1" repeatCount="indefinite" attributeName="opacity" to="0" dur="1s"/>
 </rect>
 <rect transform="rotate(60 50 50) translate(0 -30)" rx="5" ry="5" height="20" width="8" y="40" x="46">
  <animate begin="0.16666666666666666s" from="1" repeatCount="indefinite" attributeName="opacity" to="0" dur="1s"/>
 </rect>
 <rect transform="rotate(90 50 50) translate(0 -30)" rx="5" ry="5" height="20" width="8" y="40" x="46">
  <animate begin="0.25s" from="1" repeatCount="indefinite" attributeName="opacity" to="0" dur="1s"/>
 </rect>
 <rect transform="rotate(120 50 50) translate(0 -30)" rx="5" ry="5" height="20" width="8" y="40" x="46">
  <animate begin="0.3333333333333333s" from="1" repeatCount="indefinite" attributeName="opacity" to="0" dur="1s"/>
 </rect>
 <rect transform="rotate(150 50 50) translate(0 -30)" rx="5" ry="5" height="20" width="8" y="40" x="46">
  <animate begin="0.4166666666666667s" from="1" repeatCount="indefinite" attributeName="opacity" to="0" dur="1s"/>
 </rect>
 <rect transform="rotate(180 50 50) translate(0 -30)" rx="5" ry="5" height="20" width="8" y="40" x="46">
  <animate begin="0.5s" from="1" repeatCount="indefinite" attributeName="opacity" to="0" dur="1s"/>
 </rect>
 <rect transform="rotate(210 50 50) translate(0 -30)" rx="5" ry="5" height="20" width="8" y="40" x="46">
  <animate begin="0.5833333333333334s" from="1" repeatCount="indefinite" attributeName="opacity" to="0" dur="1s"/>
 </rect>
 <rect transform="rotate(240 50 50) translate(0 -30)" rx="5" ry="5" height="20" width="8" y="40" x="46">
  <animate begin="0.6666666666666666s" from="1" repeatCount="indefinite" attributeName="opacity" to="0" dur="1s"/>
 </rect>
 <rect transform="rotate(270 50 50) translate(0 -30)" rx="5" ry="5" height="20" width="8" y="40" x="46">
  <animate begin="0.75s" from="1" repeatCount="indefinite" attributeName="opacity" to="0" dur="1s"/>
 </rect>
 <rect transform="rotate(300 50 50) translate(0 -30)" rx="5" ry="5" height="20" width="8" y="40" x="46">
  <animate begin="0.8333333333333334s" from="1" repeatCount="indefinite" attributeName="opacity" to="0" dur="1s"/>
 </rect>
 <rect transform="rotate(330 50 50) translate(0 -30)" rx="5" ry="5" height="20" width="8" y="40" x="46">
  <animate begin="0.9166666666666666s" from="1" repeatCount="indefinite" attributeName="opacity" to="0" dur="1s"/>
 </rect>
</svg>
